Coordinates
version=1
nRows=24
nColumns=22
inDegrees=yes

Units are S.I. units (second, meters, Newtons, ...)
If the header above contains a line with 'inDegrees', this indicates whether rotational values are in degrees (yes) or radians (no).

endheader
time	pelvis_tilt	pelvis_list	pelvis_rotation	pelvis_tx	pelvis_ty	pelvis_tz	hip_flexion_r	hip_adduction_r	hip_rotation_r	knee_angle_r	ankle_angle_r	subtalar_angle_r	hip_flexion_l	hip_adduction_l	hip_rotation_l	knee_angle_l	ankle_angle_l	subtalar_angle_l	lumbar_extension	lumbar_bending	lumbar_rotation
      3.96000000	      2.91665306	     -2.72204435	     -4.61172151	      1.12372482	      0.92683868	      0.14679294	     -5.39526055	      2.33045315	      3.32867387	     -6.76672685	      4.89670935	      0.75284929	     -5.37061534	     -4.33962804	    -11.51480167	     -9.88623187	      8.85324396	     -0.72778869	     -6.71820790	     -0.34070206	      2.65278667
      3.97000000	      2.93021875	     -2.72561612	     -4.60585449	      1.12354074	      0.92687046	      0.14680302	     -5.38255640	      2.33646031	      3.31703379	     -6.79419353	      4.89385741	      0.75410929	     -5.37015897	     -4.34891664	    -11.50003226	     -9.89034444	      8.83116179	     -0.71941792	     -6.74129828	     -0.33084997	      2.64021637
      3.98000000	      2.94063001	     -2.72912211	     -4.60136064	      1.12333474	      0.92689897	      0.14682439	     -5.36286140	      2.34330111	      3.31599329	     -6.82468972	      4.88668888	      0.75413894	     -5.35629652	     -4.36133941	    -11.48488670	     -9.91057604	      8.81483614	     -0.70748096	     -6.76252474	     -0.32265487	      2.62495247
      3.99000000	      2.94984896	     -2.73485426	     -4.59601851	      1.12309287	      0.92693010	      0.14685901	     -5.33369270	      2.35432957	      3.31894769	     -6.86561740	      4.87505227	      0.75295335	     -5.32417303	     -4.38109113	    -11.46191369	     -9.95912114	      8.79659351	     -0.68974678	     -6.78780680	     -0.31408810	      2.61142160
      4.00000000	      2.86808743	     -2.75779161	     -4.56166137	      1.12278366	      0.92682847	      0.14688110	     -5.18717348	      2.39795685	      3.27048259	     -6.93795632	      4.85966345	      0.74333704	     -5.13991825	     -4.44422723	    -11.42599819	    -10.09878745	      8.83424280	     -0.56463560	     -6.71509830	     -0.27797720	      2.56331495
      4.01000000	      2.89137599	     -2.75841194	     -4.56432940	      1.12249184	      0.92688949	      0.14694870	     -5.16017440	      2.40391184	      3.29744366	     -6.99326105	      4.84597151	      0.74037848	     -5.09767018	     -4.46243536	    -11.38775205	    -10.19020368	      8.80703167	     -0.55581267	     -6.76357304	     -0.28063326	      2.56455705
      4.02000000	      2.78964795	     -2.78876060	     -4.52216971	      1.12207706	      0.92676686	      0.14699753	     -4.96455857	      2.46293052	      3.24714161	     -7.10561947	      4.83025928	      0.71402058	     -4.83003148	     -4.55002862	    -11.35091273	    -10.43461933	      8.86341753	     -0.45621074	     -6.68578076	     -0.23904690	      2.51666320
      4.03000000	      2.74199569	     -2.80389275	     -4.49437755	      1.12165264	      0.92672831	      0.14707870	     -4.82359225	      2.50071812	      3.22340621	     -7.22004420	      4.82056943	      0.68966682	     -4.62318438	     -4.61324172	    -11.30060777	    -10.67172346	      8.88077372	     -0.40079451	     -6.67342018	     -0.22340060	      2.49508644
      4.04000000	      2.69446880	     -2.82421186	     -4.45847832	      1.12117431	      0.92669356	      0.14716964	     -4.66897641	      2.54752260	      3.19197581	     -7.35511525	      4.80687744	      0.66065415	     -4.38798608	     -4.68753922	    -11.23357239	    -10.95440805	      8.91156112	     -0.35449696	     -6.67183408	     -0.20374995	      2.47013779
      4.05000000	      2.69356704	     -2.84262079	     -4.42251573	      1.12065872	      0.92672786	      0.14728222	     -4.55445357	      2.59088359	      3.15805791	     -7.50469336	      4.79454477	      0.63705579	     -4.18180799	     -4.76052053	    -11.19631105	    -11.27038880	      8.90255602	     -0.32946010	     -6.73433715	     -0.19047483	      2.43156782
      4.06000000	      2.58767408	     -2.87116833	     -4.37480151	      1.12002279	      0.92660539	      0.14741536	     -4.29052963	      2.66147262	      3.10956430	     -7.70985013	      4.78895926	      0.58137184	     -3.81954385	     -4.85909724	    -11.06686805	    -11.65324284	      8.99038265	     -0.28427816	     -6.69130067	     -0.16156732	      2.43038366
      4.07000000	      2.53356108	     -2.89822326	     -4.33578635	      1.11934547	      0.92655493	      0.14758103	     -4.06816007	      2.72793399	      3.05696131	     -7.93711597	      4.79005633	      0.52708393	     -3.49704991	     -4.95371766	    -10.97649716	    -12.06106503	      9.03859163	     -0.26181684	     -6.71932810	     -0.13818525	      2.42793212
      4.08000000	      2.49065506	     -2.92948388	     -4.29464626	      1.11860599	      0.92651475	      0.14778721	     -3.84178475	      2.80319065	      2.99343794	     -8.18691522	      4.79428651	      0.46964712	     -3.16556874	     -5.05650285	    -10.88252895	    -12.50059567	      9.08602679	     -0.25101950	     -6.77138759	     -0.11521541	      2.44107156
      4.09000000	      2.44730578	     -2.96217781	     -4.25897563	      1.11779462	      0.92646463	      0.14803896	     -3.59108448	      2.88448989	      2.93131878	     -8.47385024	      4.80385008	      0.40428530	     -2.81536028	     -5.16313763	    -10.78617933	    -12.96684450	      9.13449413	     -0.24806170	     -6.83590434	     -0.09216259	      2.46239923
      4.10000000	      2.40230707	     -2.99608054	     -4.22762179	      1.11690265	      0.92640255	      0.14833978	     -3.31666117	      2.97186049	      2.86957065	     -8.79165769	      4.82000901	      0.33032549	     -2.44690901	     -5.27419454	    -10.68500156	    -13.45543944	      9.18752644	     -0.25177240	     -6.91121091	     -0.06974549	      2.49953313
      4.11000000	      2.35457395	     -3.03088757	     -4.20021112	      1.11594687	      0.92632289	      0.14870874	     -3.01783403	      3.06720160	      2.81305921	     -9.14426462	      4.84070653	      0.24717041	     -2.06398875	     -5.39016499	    -10.58356436	    -13.95759267	      9.24182694	     -0.26126269	     -6.99280252	     -0.05272170	      2.54378324
      4.12000000	      2.31910297	     -3.06619957	     -4.18337673	      1.11492042	      0.92624811	      0.14913005	     -2.71329122	      3.16472969	      2.75706916	     -9.52304927	      4.86433277	      0.16168815	     -1.68632422	     -5.50714435	    -10.48272496	    -14.46976813	      9.28823878	     -0.27452507	     -7.10019168	     -0.03453978	      2.60382414
      4.13000000	      2.28192082	     -3.10262811	     -4.17304178	      1.11382551	      0.92615056	      0.14959218	     -2.39393583	      3.26561382	      2.69571162	     -9.91665858	      4.89748522	      0.07204185	     -1.29547611	     -5.62668834	    -10.37714768	    -14.99683285	      9.34209680	     -0.29030681	     -7.21677012	     -0.01231175	      2.68438413
      4.14000000	      2.25512123	     -3.14048829	     -4.16609292	      1.11266260	      0.92604626	      0.15012888	     -2.07277286	      3.37235072	      2.63246308	    -10.32767819	      4.93783037	     -0.01604697	     -0.90725500	     -5.75192353	    -10.27137891	    -15.53297200	      9.39559806	     -0.30705601	     -7.35567422	      0.00337583	      2.78279504
      4.15000000	      2.21897033	     -3.17725764	     -4.16170703	      1.11146024	      0.92590761	      0.15072438	     -1.73504360	      3.48225819	      2.57217046	    -10.74664460	      4.98311202	     -0.10841732	     -0.50599802	     -5.87974423	    -10.16049394	    -16.07014748	      9.45325656	     -0.32534909	     -7.48428459	      0.01817786	      2.89081408
      4.16000000	      2.18307041	     -3.21655683	     -4.15961342	      1.11018961	      0.92574001	      0.15138848	     -1.38736571	      3.59888165	      2.51169845	    -11.17798575	      5.03575195	     -0.20146198	     -0.09554982	     -6.01507783	    -10.04493586	    -16.61779204	      9.51677104	     -0.34392670	     -7.61989877	      0.03002393	      3.00849606
      4.17000000	      2.14213223	     -3.25791015	     -4.16032047	      1.10886484	      0.92553288	      0.15210798	     -1.03171461	      3.72059621	      2.45102998	    -11.60770110	      5.09769841	     -0.29452931	      0.32774955	     -6.15548360	     -9.92277016	    -17.17523192	      9.59362883	     -0.36158600	     -7.75501111	      0.04334573	      3.13208808
      4.18000000	      2.09540410	     -3.30178721	     -4.16451295	      1.10748545	      0.92528644	      0.15288781	     -0.66567607	      3.84821604	      2.38993825	    -12.03950492	      5.16017425	     -0.39096688	      0.76149269	     -6.30183995	     -9.79058237	    -17.73442154	      9.66840403	     -0.37886171	     -7.88510827	      0.05824073	      3.26272189
      4.19000000	      2.03814771	     -3.35059413	     -4.16643858	      1.10606464	      0.92498980	      0.15372090	     -0.29038811	      3.98495958	      2.32792981	    -12.46432221	      5.22781093	     -0.49325262	      1.21294079	     -6.45655276	     -9.64545235	    -18.30056314	      9.75592870	     -0.39504166	     -8.00276892	      0.07675875	      3.39453935
